<?xml version="1.0" encoding="UTF-8" standalone="no"?>
<!DOCTYPE svg PUBLIC "-//W3C//DTD SVG 20010904//EN"
              "http://www.w3.org/TR/2001/REC-SVG-20010904/DTD/svg10.dtd">

<svg xmlns="http://www.w3.org/2000/svg"
     width="169.312mm" height="62.1693mm"
     viewBox="0 0 640 235">
  <path id="Selection"
        fill="none" stroke="black" stroke-width="1"
        d="M 271.00,145.00
           C 269.60,150.94 266.62,156.66 263.69,162.00
             260.93,167.02 257.57,171.94 253.00,175.47
             245.61,181.17 232.64,182.86 224.00,179.39
             220.38,177.93 213.98,173.34 211.04,170.70
             207.10,167.18 203.92,162.40 201.00,158.00
             191.84,144.18 186.20,130.83 186.00,114.00
             186.00,114.00 186.00,102.00 186.00,102.00
             186.08,85.38 193.73,66.95 207.00,56.68
             227.96,40.46 254.49,51.38 256.83,73.00
             257.27,77.07 257.00,85.80 250.22,81.96
             247.84,80.61 245.69,75.49 243.95,73.00
             240.21,67.66 231.93,61.02 225.00,61.52
             214.04,62.31 209.49,80.21 207.80,89.00
             203.72,110.31 207.74,136.05 216.01,156.00
             219.26,163.83 225.71,175.41 235.00,176.63
             249.97,178.60 259.65,154.99 264.69,144.00
             265.68,141.84 267.76,137.20 268.08,135.00
             268.08,135.00 265.00,106.00 265.00,106.00
             264.97,83.75 266.16,57.72 279.78,39.00
             286.34,29.99 300.30,23.13 309.67,32.34
             314.44,37.02 316.28,46.51 315.91,53.00
             314.98,69.40 306.45,91.56 298.69,106.00
             295.99,111.03 285.62,126.93 285.38,131.00
             285.04,136.69 288.83,151.44 290.96,157.00
             292.11,159.99 293.94,164.53 297.09,165.87
             301.09,167.57 305.27,162.81 307.39,160.00
             311.65,154.35 317.79,139.95 320.38,133.00
             323.86,123.67 322.02,117.67 327.90,107.00
             332.82,98.07 340.46,91.50 351.00,91.04
             351.00,91.04 364.00,91.91 364.00,91.91
             371.92,91.25 370.38,90.46 379.00,91.91
             379.00,91.91 374.92,148.00 374.92,148.00
             374.25,156.26 372.06,166.04 374.00,174.00
             380.27,169.10 384.17,161.74 388.20,155.00
             388.20,155.00 403.45,127.00 403.45,127.00
             403.45,127.00 406.63,114.00 406.63,114.00
             407.73,109.72 411.49,95.28 415.39,93.79
             417.37,92.73 420.90,93.62 423.00,93.79
             422.92,102.77 420.85,109.56 419.43,118.00
             419.43,118.00 416.17,147.00 416.17,147.00
             415.80,150.89 415.62,164.04 419.41,166.09
             421.75,167.35 423.84,164.54 425.10,162.98
             425.10,162.98 434.42,149.00 434.42,149.00
             436.50,145.68 440.41,140.29 441.78,137.00
             441.78,137.00 451.33,101.00 451.33,101.00
             452.38,97.84 454.62,88.85 457.42,87.11
             458.76,86.62 460.53,86.80 462.00,87.11
             463.89,86.98 466.71,86.98 467.98,88.60
             470.24,91.49 466.73,105.10 466.00,109.00
             470.36,105.98 474.23,102.22 479.00,99.83
             481.37,98.65 484.37,97.63 487.00,97.31
             500.31,95.69 504.92,109.20 504.92,120.00
             504.92,120.00 503.83,132.00 503.83,132.00
             503.83,132.00 503.00,141.00 503.00,141.00
             506.65,137.36 509.70,134.17 514.00,131.22
             516.19,129.71 518.48,128.43 521.00,127.55
             528.77,124.81 534.36,127.96 536.32,136.00
             537.59,141.25 535.45,158.58 534.83,165.00
             534.47,168.72 532.94,178.17 538.14,179.55
             541.35,180.40 545.93,175.11 547.91,173.00
             547.91,173.00 560.11,158.00 560.11,158.00
             563.32,153.72 564.27,150.30 570.00,150.00
             568.09,159.37 553.71,176.93 546.00,182.43
             540.78,186.16 532.91,185.93 528.65,180.79
             525.97,177.56 525.22,173.02 524.59,169.00
             524.59,169.00 524.00,135.00 524.00,135.00
             509.45,139.96 500.20,165.84 494.00,179.00
             494.00,179.00 485.00,177.00 485.00,177.00
             485.37,160.15 493.04,142.07 492.91,118.00
             492.91,118.00 492.91,112.00 492.91,112.00
             492.91,112.00 492.20,109.02 492.20,109.02
             488.24,96.93 476.99,113.43 474.20,118.00
             459.11,142.79 459.52,148.43 451.00,174.00
             448.07,173.60 441.82,173.01 440.02,170.49
             438.25,168.00 439.72,162.06 438.00,156.00
             434.83,164.60 428.33,173.84 418.00,172.80
             413.74,172.37 410.09,170.29 407.42,166.96
             402.58,160.93 403.19,152.15 401.00,145.00
             399.13,151.54 386.86,173.42 381.96,177.78
             376.27,182.86 367.88,183.61 362.39,177.78
             354.05,168.93 355.00,144.71 355.00,133.00
             347.95,138.97 338.61,160.84 326.38,150.35
             324.95,149.13 324.02,147.55 323.00,146.00
             320.36,152.12 315.52,162.25 310.82,166.79
             303.98,173.38 291.31,174.13 284.17,167.66
             277.38,161.51 275.03,152.77 271.00,145.00 Z
           M 284.00,116.00
           C 288.14,113.34 291.13,105.55 293.14,101.00
             300.20,85.02 303.91,74.52 305.25,57.00
             305.64,51.80 305.07,44.80 302.89,40.02
             301.83,37.67 300.10,34.97 297.09,36.17
             293.42,37.62 290.98,45.44 289.88,49.00
             286.40,60.34 283.06,75.16 283.15,87.00
             283.15,87.00 283.15,108.71 283.15,108.71
             283.73,110.27 283.99,110.09 285.00,111.00
             285.00,111.00 284.00,116.00 284.00,116.00 Z
           M 569.00,171.00
           C 569.08,161.66 573.28,145.55 575.63,136.00
             575.63,136.00 588.33,88.00 588.33,88.00
             590.16,82.51 595.43,64.69 599.39,61.61
             602.78,58.98 610.95,62.19 615.00,63.00
             614.82,71.34 611.00,86.49 608.87,95.00
             608.87,95.00 594.33,146.00 594.33,146.00
             594.33,146.00 588.33,164.00 588.33,164.00
             587.57,166.28 586.35,170.85 584.49,172.31
             581.71,174.51 572.65,171.51 569.00,171.00 Z
           M 55.00,97.00
           C 62.23,90.15 60.96,77.15 75.00,70.40
             95.85,60.38 108.57,81.72 108.99,100.00
             109.33,115.27 102.24,131.53 90.99,141.83
             90.99,141.83 74.00,154.00 74.00,154.00
             84.55,161.32 86.80,165.48 95.04,174.00
             98.53,177.61 108.63,187.78 113.98,186.30
             120.83,184.40 124.17,169.22 124.20,163.00
             124.22,159.02 120.63,151.75 119.50,147.00
             116.68,135.08 117.53,116.76 123.68,106.00
             126.92,100.33 132.17,94.75 139.00,94.10
             155.11,92.59 159.00,107.27 155.51,120.00
             154.20,124.79 151.62,129.33 147.91,132.67
             145.29,135.03 140.51,137.22 139.06,140.10
             137.73,142.75 138.92,146.33 139.72,149.00
             141.39,154.59 146.69,169.42 152.04,171.77
             157.49,174.16 161.25,166.75 163.42,163.00
             163.42,163.00 176.75,138.00 176.75,138.00
             179.40,132.72 180.31,128.63 187.00,130.00
             185.71,134.52 183.45,138.69 181.58,143.00
             181.58,143.00 174.25,158.00 174.25,158.00
             167.88,170.73 164.48,179.68 148.00,178.96
             144.72,178.82 141.91,178.17 139.00,176.59
             135.50,174.69 132.80,171.77 130.00,169.00
             129.40,173.24 128.53,177.11 126.67,181.00
             125.20,184.08 123.57,186.42 120.96,188.66
             118.02,191.18 114.76,192.56 111.00,193.33
             94.84,196.65 85.21,180.03 74.00,172.00
             74.00,172.00 78.86,190.00 78.86,190.00
             79.50,192.25 81.01,196.70 80.59,198.89
             79.87,202.71 71.72,205.94 68.50,203.94
             65.87,202.30 63.74,194.05 62.86,191.00
             62.86,191.00 56.72,172.00 56.72,172.00
             55.86,169.15 54.49,163.43 52.92,161.15
             49.01,155.45 39.57,160.10 39.61,154.92
             39.63,151.26 47.54,152.13 50.00,152.00
             50.00,152.00 37.25,95.00 37.25,95.00
             36.43,90.30 34.69,81.45 35.06,77.02
             35.64,70.13 45.00,67.58 47.91,71.32
             50.07,74.09 54.40,92.73 55.00,97.00 Z
           M 420.23,73.96
           C 422.46,73.21 424.47,72.74 426.57,73.96
             429.62,76.25 429.45,81.58 425.77,83.26
             419.05,86.34 413.48,78.60 420.23,73.96 Z
           M 79.00,75.81
           C 73.72,78.21 71.18,82.85 68.86,88.00
             63.44,100.08 62.94,108.11 63.00,121.00
             63.03,128.00 64.43,135.22 66.13,142.00
             66.97,145.37 67.52,149.43 72.04,148.25
             75.01,147.48 79.74,143.99 81.99,141.90
             93.45,131.24 96.18,117.95 96.00,103.00
             95.89,93.84 89.84,76.05 79.00,75.81 Z
           M 353.00,97.43
           C 341.65,101.88 334.84,119.65 333.13,131.00
             332.62,134.41 331.60,140.68 332.15,143.94
             332.50,146.07 333.46,147.88 335.95,146.83
             338.54,145.74 342.02,139.51 343.58,137.00
             348.81,128.56 354.79,118.12 358.66,109.00
             361.36,102.66 361.95,96.37 353.00,97.43 Z
           M 137.00,134.00
           C 139.36,132.67 140.45,132.16 142.15,129.89
             146.42,124.22 149.71,108.86 143.57,103.60
             142.04,102.28 140.83,102.30 139.00,102.00
             137.05,111.68 134.24,124.30 137.00,134.00 Z
           M 564.11,192.74
           C 568.27,191.79 573.33,192.53 576.57,195.65
             580.08,199.02 579.53,205.03 573.98,207.10
             564.68,210.56 553.89,199.20 564.11,192.74 Z" />
</svg>
